HIERARCHY
ROOT Hips
{
	OFFSET	0.00	0.00	0.00
	CHANNELS 6 Xposition Yposition Zposition Zrotation Xrotation Yrotation
	JOINT Spine
	{
		OFFSET	 0.00	0.01	 0.00
		CHANNELS 3 Zrotation Xrotation Yrotation
		JOINT Spine1
		{
			OFFSET	 0.00	 2.45913012437421	 0.00
			CHANNELS 3 Zrotation Xrotation Yrotation
            JOINT Neck
            {
                OFFSET	 0.00	 2.48462964506057	 0.00
                CHANNELS 3 Zrotation Xrotation Yrotation
                JOINT Head
                {
                    OFFSET	 0.00	 0.927524780924562	 0.00
                    CHANNELS 3 Zrotation Xrotation Yrotation
                    End Site 
                    {
                        OFFSET	 0.00	 1.14999962169752	 0.00
                    }
                }
            }
			JOINT LeftShoulder
			{
				OFFSET	 0.00	 2.48462964506057	 0.00
				CHANNELS 3 Zrotation Xrotation Yrotation
				JOINT LeftUpArm
				{
					OFFSET	 0.00	 1.24881979654096	 0.00
					CHANNELS 3 Zrotation Xrotation Yrotation
					JOINT LeftForeArm
					{
						OFFSET	 0.00	2.59758046908119	 0.00
						CHANNELS 3 Zrotation Xrotation Yrotation
						JOINT LeftHand
						{
							OFFSET	 0.00	2.45542024364365	 0.00
							CHANNELS 3 Zrotation Xrotation Yrotation
							JOINT LeftHandThumb 
							{
								OFFSET	 0.00	0.00	 0.00
								CHANNELS 3 Zrotation Xrotation Yrotation
								End Site
								{
									OFFSET	 0.00	0.00	1.00000003353624
								}
							}
							JOINT L_Wrist_End 
							{
								OFFSET	 0.00	0.99999967115358	 0.00
								CHANNELS 3 Zrotation Xrotation Yrotation
								End Site 
								{
									OFFSET	 0.00	 0.00	 0.00
								}
							}
						}
					}
				}
			}
			JOINT RightShoulder
			{
				OFFSET	 0.00	 2.48462964506057	 0.00
				CHANNELS 3 Zrotation Xrotation Yrotation
				JOINT RightUpArm
				{
					OFFSET	 0.00	 1.24881979654096	 0.00
					CHANNELS 3 Zrotation Xrotation Yrotation
					JOINT RightForeArm
					{
						OFFSET	 0.00	2.59758046908119	 0.00
						CHANNELS 3 Zrotation Xrotation Yrotation
						JOINT RightHand
						{
							OFFSET	 0.00	2.45542024364365	 0.00
							CHANNELS 3 Zrotation Xrotation Yrotation
							JOINT RightHandThumb 
							{
								OFFSET	 0.00	0.00	 0.00
								CHANNELS 3 Zrotation Xrotation Yrotation
								End Site
								{
									OFFSET	 0.00	0.00	1.00000003353624
								}
							}
							JOINT R_Wrist_End 
							{
								OFFSET	 0.00	0.99999967115358	 0.00
								CHANNELS 3 Zrotation Xrotation Yrotation
								End Site 
								{
									OFFSET	 0.00	 0.00	 0.00
								}
							}
						}
					}
				}
			}
		}
	}
	JOINT LeftUpLeg
	{
		OFFSET	 1.2719394002717	 0.00	 0.00
		CHANNELS 3 Zrotation Xrotation Yrotation
		JOINT LeftLowLeg
		{
			OFFSET	 0.00	-4.3429100912261	 0.00
			CHANNELS 3 Zrotation Xrotation Yrotation
			JOINT LeftFoot
			{
				OFFSET	 0.00	-4.48767017425826	 0.00
				CHANNELS 3 Zrotation Xrotation Yrotation
				JOINT LeftToeBase
                {
                    OFFSET	 0.00	0.00	 1.51507020887566
                    CHANNELS 3 Zrotation Xrotation Yrotation
                    End Site 
                    {
                        OFFSET	 0.00	0.00	 0.75000010571191
                    }
                }
			}
		}
	}
	JOINT RightUpLeg
	{
		OFFSET	 -1.2719393604653	 0.00	 0.00
		CHANNELS 3 Zrotation Xrotation Yrotation
		JOINT RightLowLeg
		{
			OFFSET	 0.00	-4.3429100912261	 0.00
			CHANNELS 3 Zrotation Xrotation Yrotation
			JOINT RightFoot
			{
				OFFSET	 0.00	-4.48767017425826	 0.00
				CHANNELS 3 Zrotation Xrotation Yrotation
				JOINT RightToeBase
                {
                    OFFSET	 0.00	0.00	 1.51507020887566
                    CHANNELS 3 Zrotation Xrotation Yrotation
                    End Site 
                    {
                        OFFSET	 0.00	0.00	 0.749999965609858
                    }
                }   
			}
		}
	}
}
MOTION 
Frames:	15 
Frame Time: 0.02 
 -2.3358799743652345 0.667051010131836 9.358579711914063 -165.828 68.3683 -188.586 7.40269 -28.2626 0.923769 -5.19856 5.29371 -1.59158 19.1504 30.2844 -5.41935 -29.2721 -76.9495 -22.6586 -119.038 1.02287 7.89493 -45.3982 1.86175 -343.109 0.0 8.68243 0.0 -4.33372 -16.9307 28.7401 0.0 0.0 0.0 0.0 0.0 0.0 120.6181 -4.47288 0.283786 47.1751 -4.15154 -27.9767 0.0 19.0099 0.0 0.956773 -8.39044 7.34775 0.0 0.0 0.0 0.0 0.0 0.0 -0.304488 -18.8247 -18.3048 0.0 5.86814 0.0 1.20635 -2.6940002 21.8204 0.0 -11.88723 0.0 8.37152 -16.8043 389.17 0.0 3.62526 0.0 4.67179 1.7874002 -29.3467 0.0 -17.5677 0.0 
  -2.3368899536132814 0.6716680145263672 9.359669799804687 -165.616 68.3717 -188.688 7.33948 -28.0523 0.851117 -4.95221 5.23563 -1.62866 19.1864 29.8918 -5.57453 -30.2579 -77.3615 -23.6466 -119.0455 0.958339 7.80397 -45.1212 1.36736 -341.079 0.0 9.58899 0.0 -3.3571 -16.127 27.2714 0.0 0.0 0.0 0.0 0.0 0.0 120.5978 -4.49242 0.303226 47.1916 -4.03536 -27.1289 0.0 18.4737 0.0 0.573751 -7.94348 5.65261 0.0 0.0 0.0 0.0 0.0 0.0 -0.267961 -18.8975 -18.3569 0.0 5.95187 0.0 1.1992 -2.6940994 21.7647 0.0 -11.88488 0.0 8.44198 -16.9008 389.161 0.0 3.80463 0.0 4.87812 1.6821003 -29.2591 0.0 -17.61892 0.0 
  -2.3380299377441407 0.6752940368652344 9.3597998046875 -165.561 68.4042 -188.71 7.22338 -27.8443 0.786953 -4.6708 5.19517 -1.57204 18.9964 29.5892 -5.44577 -31.1675 -77.7979 -24.7509 -119.088104 0.924158 7.86019 -44.746 0.993125 -338.801 0.0 10.6175 0.0 -1.62662 -14.7045 25.8713 0.0 0.0 0.0 0.0 0.0 0.0 120.5797 -4.46223 0.327976 47.0858 -3.90648 -26.7408 0.0 18.1443 0.0 0.178151 -7.72973 4.42223 0.0 0.0 0.0 0.0 0.0 0.0 -0.262014 -18.9085 -18.3384 0.0 5.98586 0.0 1.19597 -2.6919994 21.7188 0.0 -11.87653 0.0 8.47855 -16.9466 389.245 0.0 3.93857 0.0 4.9603 1.6063004 -29.2962 0.0 -17.63576 0.0 
  -2.3398500061035157 0.679541015625 9.3597998046875 -165.428 68.4541 -188.749 7.09585 -27.6418 0.69713 -4.40809 5.17339 -1.5348 18.9558 29.2666 -5.50868 -32.0186 -78.1105 -25.6362 -119.1606 0.91499 7.92314 -44.2204 0.640541 -336.409 0.0 11.9487 0.0 0.496196 -13.5823 24.7162 0.0 0.0 0.0 0.0 0.0 0.0 120.5896 -4.54277 0.113059 46.8924 -3.38685 -26.9931 0.0 17.8135 0.0 -0.0175436 -7.7468 3.21075 0.0 0.0 0.0 0.0 0.0 0.0 -0.246918 -18.9253 -18.3731 0.0 6.04855 0.0 1.14343 -2.7124004 21.6402 0.0 -11.879129 0.0 8.54267 -17.0108 389.275 0.0 4.15393 0.0 5.08249 1.4659996 -29.2911 0.0 -17.62101 0.0 
  -2.3419900512695313 0.681718978881836 9.360130004882812 -165.319 68.4963 -188.812 6.97676 -27.5252 0.636812 -4.13432 5.22664 -1.44018 18.8668 29.0088 -5.51653 -32.9462 -78.4076 -26.6984 -119.2614 0.915673 7.9047 -43.6635 0.459549 -334.37 0.0 13.1537 0.0 2.43485 -12.7917 23.8957 0.0 0.0 0.0 0.0 0.0 0.0 120.6022 -4.41878 0.0799832 46.6689 -3.22932 -27.2309 0.0 17.61 0.0 -0.422182 -7.30426 2.67482 0.0 0.0 0.0 0.0 0.0 0.0 -0.211847 -18.9038 -18.3935 0.0 6.05455 0.0 1.12627 -2.7082996 21.609 0.0 -11.88332 0.0 8.62338 -17.1094 389.384 0.0 4.45343 0.0 5.31634 1.2553997 -29.2224 0.0 -17.62802 0.0 
  -2.338520050048828 0.6850250244140625 9.358709716796875 -165.494 68.4842 -188.564 6.93321 -27.4544 0.670083 -4.03487 5.26356 -1.32988 18.6798 28.6621 -5.47828 -33.35 -78.5406 -27.2746 -119.281204 0.89666 7.85786 -43.1712 0.471198 -332.241 0.0 14.3086 0.0 4.39238 -12.1327 23.3599 0.0 0.0 0.0 0.0 0.0 0.0 120.5515 -4.25269 0.106231 46.4874 -3.20889 -27.6347 0.0 17.6113 0.0 -0.648185 -7.26048 1.51471 0.0 0.0 0.0 0.0 0.0 0.0 -0.343394 -18.9633 -18.5832 0.0 6.08567 0.0 1.13925 -2.6793003 21.7181 0.0 -11.87998 0.0 8.37393 -16.7741 388.893 0.0 3.60495 0.0 4.70155 1.7988005 -29.4184 0.0 -17.55697 0.0 
  -2.3391200256347657 0.6873719787597656 9.358880004882813 -165.411 68.4566 -188.575 6.91575 -27.4156 0.711711 -3.91858 5.32083 -1.23314 18.6319 28.3864 -5.49775 -33.7092 -78.7168 -27.6735 -119.2975 0.867888 7.78316 -42.6558 0.618886 -330.697 0.0 15.4094 0.0 5.81854 -11.7451 22.836 0.0 0.0 0.0 0.0 0.0 0.0 120.5802 -4.0536 0.18704 46.2598 -3.21597 -27.9734 0.0 17.6259 0.0 -0.709542 -7.21822 0.645144 0.0 0.0 0.0 0.0 0.0 0.0 -0.328903 -19.0115 -18.6957 0.0 6.08531 0.0 1.12756 -2.662901 21.7446 0.0 -11.88097 0.0 8.39879 -16.8357 388.903 0.0 3.66031 0.0 4.77239 1.7540998 -29.4334 0.0 -17.572609 0.0 
  -2.338419952392578 0.6961070251464844 9.358770141601562 -165.541 68.4065 -188.494 7.03597 -26.9038 0.928244 -4.0443 4.60295 -1.28485 18.7901 28.3537 -5.62715 -34.059 -78.846 -27.9466 -119.313 0.5424 7.91812 -42.0715 0.930921 -329.423 0.0 16.3802 0.0 6.81504 -11.2704 22.7203 0.0 0.0 0.0 0.0 0.0 0.0 120.7068 -3.77752 0.0378673 46.0027 -3.44976 -28.1292 0.0 17.7635 0.0 -0.839856 -7.08378 -0.495955 0.0 0.0 0.0 0.0 0.0 0.0 -0.370307 -19.1299 -18.6632 0.0 6.11612 0.0 1.08785 -2.6502 21.7312 0.0 -11.85886 0.0 8.37805 -16.9845 389.009 0.0 3.74407 0.0 4.88334 1.6812 -29.4093 0.0 -17.58074 0.0 
  -2.3385499572753905 0.7008719635009766 9.358930053710937 -165.431 68.4208 -188.51 7.12027 -26.6046 1.08203 -4.13558 4.19936 -1.29769 19.0003 28.442 -5.79438 -34.6339 -78.9707 -28.5019 -119.2669 0.503952 8.13621 -41.621 1.32499 -328.579 0.0 17.2422 0.0 7.28876 -11.1331 22.3093 0.0 0.0 0.0 0.0 0.0 0.0 120.8058 -3.69287 -0.352314 45.8195 -3.20772 -28.169 0.0 17.8016 0.0 -0.754752 -7.04443 -0.659142 0.0 0.0 0.0 0.0 0.0 0.0 -0.356109 -19.1451 -18.7511 0.0 6.09957 0.0 1.04432 -2.6287003 21.6967 0.0 -11.8582 0.0 8.3913 -17.0028 388.9 0.0 3.7664 0.0 4.90835 1.6681995 -29.3811 0.0 -17.54217 0.0 
  -2.338820037841797 0.7026699829101563 9.35948974609375 -165.299 68.4378 -188.559 7.09331 -26.5371 1.13094 -4.01987 4.19552 -1.19598 18.9515 28.3265 -5.76915 -34.7554 -79.0488 -28.7598 -119.3302 0.552142 8.13173 -41.2333 1.7901 -327.98 0.0 17.9521 0.0 7.4726 -10.9346 22.3523 0.0 0.0 0.0 0.0 0.0 0.0 120.7846 -3.65078 -0.38499 45.6882 -2.98842 -28.3606 0.0 17.8585 0.0 -0.830078 -7.07762 -0.613878 0.0 0.0 0.0 0.0 0.0 0.0 -0.306134 -19.0969 -18.7743 0.0 5.99479 0.0 0.960008 -2.6061 21.5989 0.0 -11.83849 0.0 8.42074 -17.0006 388.803 0.0 3.78966 0.0 4.91019 1.6889 -29.3676 0.0 -17.56053 0.0 
  -2.3401699829101563 0.7059660339355469 9.360079956054687 -165.14 68.4771 -188.66 7.04581 -26.4146 1.17328 -3.86529 4.18404 -1.08417 18.8993 28.1781 -5.72392 -34.7438 -79.1392 -28.8298 -119.395004 0.655949 8.12764 -41.0281 2.38136 -328.127 0.0 18.3748 0.0 7.1449 -10.9473 22.0652 0.0 0.0 0.0 0.0 0.0 0.0 120.7344 -3.6105 -0.376673 45.617 -2.73442 -28.511 0.0 17.7999 0.0 -0.93648 -6.79578 -0.996002 0.0 0.0 0.0 0.0 0.0 0.0 -0.214049 -19.0078 -18.632 0.0 5.83672 0.0 0.820055 -2.6000004 21.3468 0.0 -11.77542 0.0 8.48439 -17.0111 388.756 0.0 3.86993 0.0 4.89642 1.7208996 -29.3831 0.0 -17.59842 0.0 
  -2.3421600341796873 0.7107929992675781 9.360700073242187 -164.933 68.5495 -188.794 7.02669 -26.2254 1.2237 -3.77865 4.12895 -1.02216 19.1366 27.9563 -5.98349 -34.4993 -79.149 -28.4039 -119.4326 0.78141 8.16861 -40.9037 3.04346 -328.427 0.0 18.6265 0.0 6.94095 -10.891 22.0419 0.0 0.0 0.0 0.0 0.0 0.0 120.7744 -3.58348 -0.485043 45.4971 -2.39001 -28.4593 0.0 17.8073 0.0 -1.11306 -6.5259 -1.54201 0.0 0.0 0.0 0.0 0.0 0.0 -0.0917727 -18.8753 -18.3845 0.0 5.63294 0.0 0.63385 -2.5902004 20.9412 0.0 -11.70982 0.0 8.56632 -17.0167 388.637 0.0 3.99576 0.0 4.89811 1.7354002 -29.3251 0.0 -17.61727 0.0 
  -2.3453399658203127 0.7112290191650391 9.361370239257813 -164.833 68.6899 -189.018 6.96961 -26.0774 1.2831 -3.58832 4.21839 -0.864119 19.2008 27.7447 -6.06154 -34.1676 -79.1721 -28.0192 -119.4834 0.938887 8.18681 -40.8996 3.75544 -328.883 0.0 18.7553 0.0 6.67199 -10.9502 21.8839 0.0 0.0 0.0 0.0 0.0 0.0 120.762 -3.52932 -0.518877 45.4395 -2.02313 -28.2976 0.0 17.7951 0.0 -1.30137 -6.38506 -1.79785 0.0 0.0 0.0 0.0 0.0 0.0 0.095895 -18.53 -18.0231 0.0 5.23089 0.0 0.386447 -2.5762997 20.5794 0.0 -11.63038 0.0 8.66966 -16.9408 388.745 0.0 4.13148 0.0 4.87287 1.7799997 -29.3202 0.0 -17.62509 0.0 
  -2.350570068359375 0.7125550079345703 9.362080078125 -164.634 68.8758 -189.342 6.89036 -25.8695 1.29391 -3.34381 4.32099 -0.749653 19.1642 27.578 -6.01797 -33.9052 -79.2332 -27.764 -119.5694 1.1003 8.25293 -40.9058 4.53655 -329.214 0.0 18.8407 0.0 6.65352 -11.0109 21.8361 0.0 0.0 0.0 0.0 0.0 0.0 120.738 -3.44273 -0.554524 45.3722 -1.65917 -28.1689 0.0 17.8503 0.0 -1.54072 -6.08758 -2.22982 0.0 0.0 0.0 0.0 0.0 0.0 0.331884 -18.157 -17.5903 0.0 4.86985 0.0 0.0218804 -2.6366005 20.0857 0.0 -11.56386 0.0 8.81435 -16.8231 388.875 0.0 4.27779 0.0 4.86255 1.8394003 -29.3249 0.0 -17.66438 0.0 
  -2.3563299560546875 0.7170369720458984 9.363350219726563 -164.52 68.9678 -189.589 6.79455 -25.6831 1.2707 -3.08363 4.36445 -0.662656 19.1283 27.4294 -5.96168 -33.8008 -79.3399 -27.5558 -119.6815 1.27288 8.34819 -40.9956 5.39828 -329.767 0.0 18.715 0.0 6.68847 -10.9416 22.041 0.0 0.0 0.0 0.0 0.0 0.0 120.6998 -3.35306 -0.565551 45.3551 -1.24687 -28.0389 0.0 17.8358 0.0 -1.85462 -5.9064 -2.48122 0.0 0.0 0.0 0.0 0.0 0.0 0.534888 -17.9221 -17.3365 0.0 4.55898 0.0 -0.361066 -2.6746998 19.7534 0.0 -11.48156 0.0 8.96114 -16.8579 388.973 0.0 4.50146 0.0 4.89236 1.8716002 -29.239 0.0 -17.68927 0.0 
